<svg id="Capa_1" data-name="Capa 1" xmlns="http://www.w3.org/2000/svg" viewBox="0 0 484 453"><defs><style>.cls-1{fill:#fff;}</style></defs><path class="cls-1" d="M258.28,233.4a47.15,47.15,0,0,1-3.3,4.29Q183.81,308.91,112.61,380.1c-3.68,3.69-7.7,5.95-13,4.44a11.86,11.86,0,0,1-6-19.16c.87-1.05,1.89-2,2.86-3q70.92-70.93,141.86-141.85a32.07,32.07,0,0,1,3.24-2.54l.65-1.65c-1.3-.75-2.84-1.26-3.87-2.29q-71.12-71-142.06-142.19a17.78,17.78,0,0,1-4.64-9c-.87-5,1.74-8.92,6.3-11.26s8.94-1.71,13,1.36a31.8,31.8,0,0,1,3,2.85q70.69,70.65,141.36,141.31a22.52,22.52,0,0,0,4.19,3.9c.75-1.3,1.26-2.84,2.28-3.87q71.26-71.4,142.58-142.73c3.81-3.82,7.95-6,13.39-4.31A11.87,11.87,0,0,1,423.54,69a39.73,39.73,0,0,1-3.35,3.52q-70.65,70.68-141.33,141.33c-1.05,1.06-2.3,1.92-3.74,3.11,1.42,1.49,2.41,2.56,3.43,3.59Q349.76,291.7,420.9,363a20,20,0,0,1,5,8.44c1.27,4.66-1.53,9.61-5.71,12a11.88,11.88,0,0,1-13.36-1,37.85,37.85,0,0,1-3.25-3.09Q332.77,308.58,262,237.78C260.91,236.72,260,235.49,258.28,233.4Z"/></svg>