<svg id="Capa_1" data-name="Capa 1" xmlns="http://www.w3.org/2000/svg" viewBox="0 0 419 394"><defs><style>.cls-1{fill:#fff;}</style></defs><path class="cls-1" d="M103,109.49c1.37-2.33,3.37-3.09,6.08-3.08q88.8.09,177.58,0c4.67,0,6,1.36,6,6q0,88.78.05,177.57c0,2.72-.77,4.71-3.09,6.09H103ZM283.54,287V115.57H112.19V287Z"/><path class="cls-1" d="M143,84.6c0,2.83.07,5.55,0,8.26a4.34,4.34,0,0,1-3.23,4.35A4,4,0,0,1,135,95.62a6.29,6.29,0,0,1-.94-3.21c-.11-3.87-.05-7.75,0-11.63s1.63-5.34,5.43-5.35h178c4.92,0,6.26,1.34,6.26,6.26V258.83c0,5-1.3,6.29-6.21,6.29-3.59,0-7.19,0-10.78,0-3,0-5-1.84-5-4.46s2-4.44,5-4.51c2.52-.06,5-.06,7.54-.09.06,0,.12-.06.32-.18V84.6Z"/></svg>