<svg width="505" height="495" viewBox="0 0 505 495" fill="none" xmlns="http://www.w3.org/2000/svg">
<g clip-path="url(#clip0_2_251)">
<path d="M209.06 319.11H293.32C293.32 319.11 330.09 257.83 326.26 167.45C326.26 167.45 327.03 62.51 253.49 2C253.49 2 180.72 51.02 178.43 168.98C178.43 168.98 179.19 267.02 209.06 319.11Z" stroke="white" stroke-width="4" stroke-miterlimit="10" stroke-linecap="round" stroke-linejoin="round"/>
<path d="M279.79 319.62C297.66 371.71 252.22 400.81 252.22 400.81C252.22 400.81 209.84 374.77 225.16 319.62" stroke="white" stroke-width="4" stroke-miterlimit="10" stroke-linecap="round" stroke-linejoin="round"/>
<path d="M2 492.72H502.94" stroke="white" stroke-width="4" stroke-miterlimit="10" stroke-linecap="round" stroke-linejoin="round"/>
<path d="M194.51 286.43C194.51 286.43 170 308.39 179.7 344.13C179.7 344.13 114.85 274.68 180.72 207.79" stroke="white" stroke-width="4" stroke-miterlimit="10" stroke-linecap="round" stroke-linejoin="round"/>
<path d="M309.74 287.28C309.74 287.28 336.28 308.76 326.58 344.5C326.58 344.5 391.43 275.05 325.56 208.16" stroke="white" stroke-width="4" stroke-miterlimit="10" stroke-linecap="round" stroke-linejoin="round"/>
<path d="M196.55 285.91H306.85" stroke="white" stroke-width="4" stroke-miterlimit="10" stroke-linecap="round" stroke-linejoin="round"/>
<path d="M252.72 175.96C268.797 175.96 281.83 162.927 281.83 146.85C281.83 130.773 268.797 117.74 252.72 117.74C236.643 117.74 223.61 130.773 223.61 146.85C223.61 162.927 236.643 175.96 252.72 175.96Z" stroke="white" stroke-width="4" stroke-miterlimit="10" stroke-linecap="round" stroke-linejoin="round"/>
<path d="M305.66 74.51H199.79" stroke="white" stroke-width="4" stroke-miterlimit="10" stroke-linecap="round" stroke-linejoin="round"/>
<path d="M94.6 491.87C94.6 491.87 75.54 475.53 77.58 451.7C79.62 427.87 103.79 414.25 112.98 413.57C112.98 413.57 125.24 381.91 160.3 386C186.14 389.01 196.04 408.47 198.43 428.21" stroke="white" stroke-width="4" stroke-miterlimit="10" stroke-linecap="round" stroke-linejoin="round"/>
<path d="M179.02 392.47C179.02 392.47 194.34 363.53 227.02 370" stroke="white" stroke-width="4" stroke-miterlimit="10" stroke-linecap="round" stroke-linejoin="round"/>
<path d="M415.8 491.68C415.8 491.68 434.86 475.34 432.82 451.51C430.78 427.68 406.61 414.06 397.42 413.38C397.42 413.38 385.16 381.72 350.1 385.81C324.26 388.82 314.36 408.28 311.97 428.02" stroke="white" stroke-width="4" stroke-miterlimit="10" stroke-linecap="round" stroke-linejoin="round"/>
<path d="M331.38 392.28C331.38 392.28 315.19 360.47 278.77 371.02" stroke="white" stroke-width="4" stroke-miterlimit="10" stroke-linecap="round" stroke-linejoin="round"/>
<path d="M252.21 200.13V226" stroke="white" stroke-width="4" stroke-miterlimit="10" stroke-linecap="round" stroke-linejoin="round"/>
<path d="M252.21 236.55V254.94" stroke="white" stroke-width="4" stroke-miterlimit="10" stroke-linecap="round" stroke-linejoin="round"/>
</g>
<defs>
<clipPath id="clip0_2_251">
<rect width="504.94" height="494.72" fill="white"/>
</clipPath>
</defs>
</svg>
